<svg xmlns="http://www.w3.org/2000/svg" viewBox="0 0 712.10 469" width="680.10" height="437" style="background-color: rgb(248, 249, 250);"><defs><style>@import url('https://fonts.googleapis.com/css2?family=Caveat+Brush&amp;family=Source+Code+Pro&amp;family=Source+Sans+Pro&amp;family=Crimson+Pro&amp;display=block');</style></defs><g id="07c13ea4-ab90-4897-137a-745a567d6b73_svg" class="tl-centered-g" transform="translate(140.81, 182.22) rotate(357.42, 38.29, 38.57)"><ellipse cx="38.28" cy="38.57" rx="34.95" ry="35.24" fill="none" stroke="#4263eb" stroke-width="6.66" stroke-dasharray="11.32 16.23" stroke-dashoffset="5.66" pointer-events="none" stroke-linecap="round" stroke-linejoin="round"/></g><g id="6fcd2c81-4d47-4ddf-2bf5-a9fc8045a789_svg" class="tl-centered-g" transform="translate(437.27, 64.00) rotate(0.00, 45.97, 47.13)"><ellipse cx="45.97" cy="47.13" rx="42.63" ry="43.80" fill="none" stroke="#4263eb" stroke-width="6.66" stroke-dasharray="11.32 22.62" stroke-dashoffset="5.66" pointer-events="none" stroke-linecap="round" stroke-linejoin="round"/></g><g id="8ae127c6-da01-4e5d-217c-1196c19d01b0_svg" class="tl-centered-g" transform="translate(453.27, 264.00) rotate(0.00, 49.60, 52.53)"><ellipse cx="49.59" cy="52.52" rx="46.26" ry="49.19" fill="none" stroke="#4263eb" stroke-width="6.66" stroke-dasharray="11.32 13.67" stroke-dashoffset="5.66" pointer-events="none" stroke-linecap="round" stroke-linejoin="round"/></g><g fill="#4263eb" transform="translate(156.74, 190.39) rotate(357.42, 18.50, 29.00)"><text y="24" letter-spacing="-1.44" font-size="48px" font-family="Source Code Pro" text-align="justify" alignment-baseline="central">I</text></g><g id="3b6d354e-77fc-49bd-10f2-b98d9722f2fc_svg" class="tl-centered-g" transform="translate(421.27, 48.00) rotate(0.00, 63.90, 65.35)"><ellipse cx="63.90" cy="65.34" rx="60.57" ry="62.01" fill="none" stroke="#4263eb" stroke-width="6.66" stroke-dasharray="11.32 12.74" stroke-dashoffset="5.66" pointer-events="none" stroke-linecap="round" stroke-linejoin="round"/></g><g fill="#4263eb" transform="translate(485.27, 288.00) rotate(0.00, 18.50, 29.00)"><text y="24" letter-spacing="-1.44" font-size="48px" font-family="Source Code Pro" text-align="justify" alignment-baseline="central">R</text></g><g fill="#4263eb" transform="translate(16.37, 112.11) rotate(357.42, 118.50, 11.00)"><text y="24" letter-spacing="-1.44" font-size="48px" font-family="Source Code Pro" text-align="justify" alignment-baseline="central" transform="scale(0.2443743736070278)">max, min, numSquares, subdivisions</text></g><g fill="#4263eb" transform="translate(469.27, 80.00) rotate(0.00, 18.50, 29.00)"><text y="24" letter-spacing="-1.44" font-size="48px" font-family="Source Code Pro" text-align="justify" alignment-baseline="central">S</text></g><g id="2a13110c-88c2-44ee-0ac3-902a00b98478_svg" class="tl-centered-g" transform="translate(96.99, 137.83) rotate(0.00, 21.01, 23.14)"><defs><mask id="2a13110c-88c2-44ee-0ac3-902a00b98478_clip"><rect x="-100" y="-100" width="242.02" height="246.27" fill="white"/><rect x="21.01" y="23.13" width="0" height="0" rx="2" ry="2" fill="black" opacity="1"/></mask></defs><g pointer-events="none" opacity="1" mask=""><path d="M0,0L42.02,46.27" fill="#4263eb" stroke="#4263eb" stroke-width="6.66" stroke-dasharray="11.32 11.32" stroke-dashoffset="0" stroke-linecap="round" stroke-linejoin="round" pointer-events="stroke"/><g><path d="M 37.60,25.909668188964677 L 42.02,46.27 22.17,39.91633485563134" fill="none" stroke="#4263eb" stroke-width="6.66" stroke-linecap="round" stroke-linejoin="round" pointer-events="none"/></g></g></g><g fill="#4263eb" transform="translate(129.74, 310.80) rotate(357.42, 39.00, 20.00)"><text y="24" letter-spacing="-1.44" font-size="48px" font-family="Source Code Pro" text-align="justify" alignment-baseline="central" transform="scale(0.6198146930014744)">init</text></g><g id="d3867034-7cb5-4871-29ad-824f434b4da6_svg" class="tl-centered-g" transform="translate(134.71, 264.27) rotate(0.00, 40.82, 19.91)"><defs><mask id="d3867034-7cb5-4871-29ad-824f434b4da6_clip"><rect x="-100" y="-100" width="281.63" height="239.82" fill="white"/><rect x="36.58" y="39.54" width="0" height="0" rx="4" ry="4" fill="black" opacity="1"/></mask></defs><g pointer-events="none" opacity="1" mask=""><path d="M 0.22 -6.5 A 41.69 41.69 0 0 0 82.99 3.63" fill="none" stroke="#4263eb" stroke-width="6.66" stroke-dasharray="13.32 25.61" stroke-dashoffset="0" stroke-linecap="round" stroke-linejoin="round" pointer-events="none"/><g><path d="M 61.87,21.705772063106892 L 82.99,3.63 88.08,30.95469361448839" fill="none" stroke="#4263eb" stroke-width="6.66" stroke-linecap="round" stroke-linejoin="round" pointer-events="none"/></g></g></g><g><g id="07c13ea4-ab90-4897-137a-745a567d6b73_svg" class="tl-centered-g" transform="translate(140.81, 182.22) rotate(357.42, 38.29, 38.57)"><ellipse cx="38.28" cy="38.57" rx="34.95" ry="35.24" fill="none" stroke="#4263eb" stroke-width="6.66" stroke-dasharray="11.32 16.23" stroke-dashoffset="5.66" pointer-events="none" stroke-linecap="round" stroke-linejoin="round"/></g><g fill="#4263eb" transform="translate(156.74, 190.39) rotate(357.42, 18.50, 29.00)"><text y="24" letter-spacing="-1.44" font-size="48px" font-family="Source Code Pro" text-align="justify" alignment-baseline="central">I</text></g><g fill="#4263eb" transform="translate(16.37, 112.11) rotate(357.42, 118.50, 11.00)"><text y="24" letter-spacing="-1.44" font-size="48px" font-family="Source Code Pro" text-align="justify" alignment-baseline="central" transform="scale(0.2443743736070278)">max, min, numSquares, subdivisions</text></g><g id="2a13110c-88c2-44ee-0ac3-902a00b98478_svg" class="tl-centered-g" transform="translate(96.99, 137.83) rotate(0.00, 21.01, 23.14)"><defs><mask id="2a13110c-88c2-44ee-0ac3-902a00b98478_clip"><rect x="-100" y="-100" width="242.02" height="246.27" fill="white"/><rect x="21.01" y="23.13" width="0" height="0" rx="2" ry="2" fill="black" opacity="1"/></mask></defs><g pointer-events="none" opacity="1" mask=""><path d="M0,0L42.02,46.27" fill="#4263eb" stroke="#4263eb" stroke-width="6.66" stroke-dasharray="11.32 11.32" stroke-dashoffset="0" stroke-linecap="round" stroke-linejoin="round" pointer-events="stroke"/><g><path d="M 37.60,25.909668188964677 L 42.02,46.27 22.17,39.91633485563134" fill="none" stroke="#4263eb" stroke-width="6.66" stroke-linecap="round" stroke-linejoin="round" pointer-events="none"/></g></g></g><g fill="#4263eb" transform="translate(129.74, 310.80) rotate(357.42, 39.00, 20.00)"><text y="24" letter-spacing="-1.44" font-size="48px" font-family="Source Code Pro" text-align="justify" alignment-baseline="central" transform="scale(0.6198146930014744)">init</text></g><g id="d3867034-7cb5-4871-29ad-824f434b4da6_svg" class="tl-centered-g" transform="translate(134.71, 264.27) rotate(0.00, 40.82, 19.91)"><defs><mask id="d3867034-7cb5-4871-29ad-824f434b4da6_clip"><rect x="-100" y="-100" width="281.63" height="239.82" fill="white"/><rect x="36.58" y="39.54" width="0" height="0" rx="4" ry="4" fill="black" opacity="1"/></mask></defs><g pointer-events="none" opacity="1" mask=""><path d="M 0.22 -6.5 A 41.69 41.69 0 0 0 82.99 3.63" fill="none" stroke="#4263eb" stroke-width="6.66" stroke-dasharray="13.32 25.61" stroke-dashoffset="0" stroke-linecap="round" stroke-linejoin="round" pointer-events="none"/><g><path d="M 61.87,21.705772063106892 L 82.99,3.63 88.08,30.95469361448839" fill="none" stroke="#4263eb" stroke-width="6.66" stroke-linecap="round" stroke-linejoin="round" pointer-events="none"/></g></g></g></g><g><g id="6fcd2c81-4d47-4ddf-2bf5-a9fc8045a789_svg" class="tl-centered-g" transform="translate(437.27, 64.00) rotate(0.00, 45.97, 47.13)"><ellipse cx="45.97" cy="47.13" rx="42.63" ry="43.80" fill="none" stroke="#4263eb" stroke-width="6.66" stroke-dasharray="11.32 22.62" stroke-dashoffset="5.66" pointer-events="none" stroke-linecap="round" stroke-linejoin="round"/></g><g id="3b6d354e-77fc-49bd-10f2-b98d9722f2fc_svg" class="tl-centered-g" transform="translate(421.27, 48.00) rotate(0.00, 63.90, 65.35)"><ellipse cx="63.90" cy="65.34" rx="60.57" ry="62.01" fill="none" stroke="#4263eb" stroke-width="6.66" stroke-dasharray="11.32 12.74" stroke-dashoffset="5.66" pointer-events="none" stroke-linecap="round" stroke-linejoin="round"/></g><g fill="#4263eb" transform="translate(469.27, 80.00) rotate(0.00, 18.50, 29.00)"><text y="24" letter-spacing="-1.44" font-size="48px" font-family="Source Code Pro" text-align="justify" alignment-baseline="central">S</text></g></g><g id="b125c064-7ded-40e4-052b-1748f1f9fac8_svg" class="tl-centered-g" transform="translate(257.57, 52.06) rotate(0.00, 71.04, 23.29)"><defs><mask id="b125c064-7ded-40e4-052b-1748f1f9fac8_clip"><rect x="-100" y="-100" width="342.08" height="246.58" fill="white"/><rect x="66.78" y="0.53" width="0" height="0" rx="4" ry="4" fill="black" opacity="1"/></mask></defs><g pointer-events="none" opacity="1" mask=""><path d="M -3.83 55.15 A 85.79 85.79 0 0 1 147.7 38.22" fill="none" stroke="#4263eb" stroke-width="6.66" stroke-dasharray="13.32 21.56" stroke-dashoffset="0" stroke-linecap="round" stroke-linejoin="round" pointer-events="none"/><g><path d="M 143.09,10.601168595885563 L 147.7,38.22 121.47,28.398078988011594" fill="none" stroke="#4263eb" stroke-width="6.66" stroke-linecap="round" stroke-linejoin="round" pointer-events="none"/></g></g></g><g fill="#4263eb" transform="translate(213.27, 16.00) rotate(0.00, 90.00, 17.50)"><text y="24" letter-spacing="-1.44" font-size="48px" font-family="Source Code Pro" text-align="justify" alignment-baseline="central" transform="scale(0.5174732923133758)">computeScale</text></g><g><g id="8ae127c6-da01-4e5d-217c-1196c19d01b0_svg" class="tl-centered-g" transform="translate(453.27, 264.00) rotate(0.00, 49.60, 52.53)"><ellipse cx="49.59" cy="52.52" rx="46.26" ry="49.19" fill="none" stroke="#4263eb" stroke-width="6.66" stroke-dasharray="11.32 13.67" stroke-dashoffset="5.66" pointer-events="none" stroke-linecap="round" stroke-linejoin="round"/></g><g fill="#4263eb" transform="translate(485.27, 288.00) rotate(0.00, 18.50, 29.00)"><text y="24" letter-spacing="-1.44" font-size="48px" font-family="Source Code Pro" text-align="justify" alignment-baseline="central">R</text></g></g><g id="8082054d-98de-4750-273e-60bfa34dcac4_svg" class="tl-centered-g" transform="translate(557.15, 158.36) rotate(0.00, 24.15, 50.78)"><defs><mask id="8082054d-98de-4750-273e-60bfa34dcac4_clip"><rect x="-100" y="-100" width="248.29" height="301.55" fill="white"/><rect x="48.10" y="46.42" width="0" height="0" rx="4" ry="4" fill="black" opacity="1"/></mask></defs><g pointer-events="none" opacity="1" mask=""><path d="M -8.07 0.1 A 51.74 51.74 0 0 1 2.34 103.07" fill="none" stroke="#4263eb" stroke-width="6.66" stroke-dasharray="13.32 16.31" stroke-dashoffset="0" stroke-linecap="round" stroke-linejoin="round" pointer-events="none"/><g><path d="M 29.50,109.8592544642863 L 2.34,103.07 21.80,82.9395444934071" fill="none" stroke="#4263eb" stroke-width="6.66" stroke-linecap="round" stroke-linejoin="round" pointer-events="none"/></g></g></g><g fill="#4263eb" transform="translate(541.27, 184.00) rotate(56.88, 92.00, 15.00)"><text y="24" letter-spacing="-1.44" font-size="48px" font-family="Source Code Pro" text-align="justify" alignment-baseline="central" transform="scale(0.42395275490732215)">rescaleDecimals</text></g><g id="48dd0ab4-19d9-4372-2455-8c674da10606_svg" class="tl-centered-g" transform="translate(379.08, 198.00) rotate(0.00, 24.59, 64.00)"><defs><mask id="48dd0ab4-19d9-4372-2455-8c674da10606_clip"><rect x="-100" y="-100" width="249.18" height="328.00" fill="white"/><rect x="0.07" y="67.34" width="0" height="0" rx="4" ry="4" fill="black" opacity="1"/></mask></defs><g pointer-events="none" opacity="1" mask=""><path d="M 58.19 130 A 68.57 68.57 0 0 1 48.16 -3.31" fill="none" stroke="#4263eb" stroke-width="6.66" stroke-dasharray="13.32 20.91" stroke-dashoffset="0" stroke-linecap="round" stroke-linejoin="round" pointer-events="none"/><g><path d="M 20.29,-6.012595533397182 L 48.16,-3.31 31.88,19.47419441881828" fill="none" stroke="#4263eb" stroke-width="6.66" stroke-linecap="round" stroke-linejoin="round" pointer-events="none"/></g></g></g><g fill="#4263eb" transform="translate(341.27, 264.00) rotate(0.00, 16.50, 29.00)"><text y="24" letter-spacing="-1.44" font-size="48px" font-family="Source Code Pro" text-align="justify" alignment-baseline="central">Ɛ</text></g><g fill="#1d1d1d" transform="translate(85.27, 400.00) rotate(0.00, 286.50, 18.50)"><text y="24" letter-spacing="-1.44" font-size="48px" font-family="Source Code Pro" text-align="justify" alignment-baseline="central" transform="scale(0.5560223613850362)">My Non-Deterministic Finite Automaton</text></g><g fill="#1d1d1d" transform="translate(117.27, 432.00) rotate(0.00, 262.00, 10.50)"><text y="24" letter-spacing="-1.44" font-size="48px" font-family="Source Code Pro" text-align="justify" alignment-baseline="central" transform="scale(0.2379256002101477)">View Source : https://github.com/JosiasAurel/experiments/tree/master/what-scale</text></g></svg>